<svg version="1.1" xmlns="http://www.w3.org/2000/svg" viewBox="0 0 125.97483547425509 137.80665997286178" width="125.97483547425509" height="137.80665997286178"><!-- svg-source:excalidraw --><metadata></metadata><defs><style class="style-fonts">
      </style></defs><rect x="0" y="0" width="125.97483547425509" height="137.80665997286178" fill="#ffffff"></rect><g transform="translate(21.490767823168426 27.90263332132872) rotate(0 21.821942949856748 6.146125505218151)" stroke="none"><path fill="#1e1e1e" d="M 1.45,0.95 Q 1.45,0.95 0.89,1.97 0.32,3.00 0.02,4.46 -0.28,5.92 -0.39,7.30 -0.51,8.69 -0.83,10.99 -1.15,13.29 -1.32,15.32 -1.49,17.35 -0.85,18.66 -0.21,19.96 4.36,22.05 8.94,24.14 13.53,25.45 18.13,26.77 21.12,27.06 24.12,27.34 26.97,26.71 29.83,26.07 32.20,24.95 34.56,23.82 36.55,22.37 38.54,20.91 40.06,19.18 41.58,17.46 42.59,15.82 43.61,14.18 44.28,12.44 44.95,10.69 45.08,8.22 45.21,5.75 45.15,3.74 45.09,1.73 44.50,0.05 43.92,-1.61 42.89,-3.07 41.87,-4.52 39.96,-6.20 38.06,-7.88 35.72,-9.54 33.37,-11.20 31.95,-12.03 30.52,-12.86 29.03,-13.57 27.53,-14.27 25.86,-14.84 24.18,-15.40 22.31,-15.55 20.45,-15.69 19.26,-15.56 18.07,-15.43 16.36,-15.08 14.65,-14.74 13.43,-14.78 12.20,-14.82 10.82,-14.46 9.44,-14.09 7.72,-13.51 6.00,-12.94 4.79,-12.55 3.58,-12.16 2.66,-11.25 1.74,-10.34 1.03,-9.14 0.32,-7.94 0.11,-6.17 -0.10,-4.40 -0.19,-3.27 -0.27,-2.15 -0.46,-0.77 -0.65,0.59 -0.75,3.01 -0.85,5.44 -0.91,5.78 -0.97,6.12 -1.12,6.44 -1.26,6.76 -1.48,7.03 -1.69,7.30 -1.97,7.52 -2.24,7.73 -2.56,7.87 -2.87,8.02 -3.22,8.08 -3.56,8.14 -3.91,8.12 -4.25,8.10 -4.59,7.99 -4.92,7.89 -5.22,7.71 -5.51,7.53 -5.76,7.28 -6.00,7.04 -6.18,6.74 -6.36,6.44 -6.47,6.11 -6.57,5.77 -6.59,5.43 -6.61,5.08 -6.54,4.71 -6.47,4.35 -6.25,3.93 -6.03,3.52 -5.70,3.20 -5.36,2.87 -4.93,2.68 -4.51,2.48 -4.05,2.43 -3.58,2.38 -3.13,2.47 -2.67,2.57 -2.27,2.81 -1.87,3.05 -1.56,3.41 -1.26,3.76 -1.09,4.19 -0.91,4.63 -0.89,5.09 -0.86,5.56 -0.98,6.01 -1.11,6.46 -1.37,6.85 -1.63,7.24 -2.00,7.52 -2.37,7.80 -2.81,7.96 -3.25,8.11 -3.72,8.11 -4.19,8.11 -4.63,7.96 -5.07,7.81 -5.45,7.53 -5.82,7.25 -6.08,6.87 -6.35,6.48 -6.47,6.03 -6.60,5.58 -6.57,5.11 -6.55,4.65 -6.38,4.21 -6.21,3.78 -5.91,3.42 -5.61,3.06 -5.21,2.82 -4.81,2.58 -4.35,2.48 -3.90,2.38 -3.43,2.43 -2.97,2.47 -2.54,2.67 -2.12,2.86 -1.78,3.18 -1.44,3.50 -1.22,3.92 -1.00,4.33 -0.92,4.79 -0.84,5.25 -0.85,5.34 -0.85,5.44 -0.91,5.78 -0.97,6.12 -1.12,6.44 -1.26,6.76 -1.48,7.03 -1.69,7.30 -1.97,7.52 -2.24,7.73 -2.56,7.87 -2.87,8.02 -3.22,8.08 -3.56,8.14 -3.91,8.12 -4.25,8.10 -4.59,7.99 -4.92,7.89 -5.22,7.71 -5.51,7.53 -5.76,7.28 -6.00,7.04 -6.18,6.74 -6.36,6.44 -6.47,6.11 -6.57,5.78 -6.59,5.43 -6.61,5.08 -6.55,3.68 -6.49,2.28 -6.41,1.08 -6.33,-0.11 -6.19,-1.33 -6.06,-2.54 -5.97,-3.95 -5.89,-5.37 -5.70,-6.57 -5.51,-7.78 -4.63,-10.13 -3.76,-12.48 -2.56,-13.87 -1.36,-15.27 0.31,-16.24 1.99,-17.21 3.21,-17.59 4.43,-17.97 6.28,-18.43 8.13,-18.89 9.18,-19.10 10.23,-19.30 11.44,-19.31 12.64,-19.32 14.12,-19.12 15.60,-18.93 16.79,-18.97 17.99,-19.02 19.33,-18.95 20.67,-18.88 22.96,-18.72 25.25,-18.57 27.14,-17.89 29.04,-17.22 30.62,-16.34 32.21,-15.47 33.59,-14.48 34.98,-13.49 37.47,-11.76 39.95,-10.03 42.13,-8.11 44.31,-6.18 45.48,-4.35 46.66,-2.51 47.26,-0.44 47.86,1.62 47.93,3.77 47.99,5.92 47.79,8.81 47.59,11.71 46.77,13.68 45.95,15.66 44.78,17.46 43.61,19.25 41.88,21.18 40.16,23.11 37.96,24.72 35.76,26.33 33.10,27.58 30.45,28.83 27.17,29.54 23.90,30.24 20.61,29.96 17.32,29.68 12.45,28.33 7.58,26.99 2.34,24.37 -2.89,21.74 -3.86,19.56 -4.83,17.37 -4.80,15.15 -4.78,12.93 -4.63,10.57 -4.49,8.21 -4.25,6.61 -4.00,5.02 -3.46,2.99 -2.92,0.96 -2.19,0.00 -1.45,-0.95 -1.32,-1.11 -1.18,-1.27 -1.01,-1.39 -0.84,-1.52 -0.65,-1.60 -0.45,-1.67 -0.25,-1.71 -0.04,-1.74 0.16,-1.72 0.37,-1.70 0.57,-1.63 0.77,-1.56 0.94,-1.44 1.12,-1.33 1.26,-1.17 1.40,-1.02 1.51,-0.84 1.61,-0.65 1.66,-0.45 1.72,-0.25 1.72,-0.04 1.73,0.16 1.68,0.37 1.64,0.57 1.55,0.76 1.45,0.95 1.45,0.95 L 1.45,0.95 Z"></path></g><g transform="translate(40.53309886823263 55.491276224985086) rotate(0 -1.0345385821492528 21.5789400686117)" stroke="none"><path fill="#1e1e1e" d="M 1.89,0.08 Q 1.89,0.08 1.66,3.24 1.44,6.41 1.32,9.80 1.20,13.20 0.97,16.57 0.74,19.94 0.50,22.33 0.25,24.71 -0.01,27.42 -0.27,30.12 -0.39,32.55 -0.51,34.98 -0.50,36.77 -0.48,38.56 -0.40,40.87 -0.32,43.18 -0.37,43.45 -0.42,43.73 -0.56,43.98 -0.69,44.23 -0.90,44.42 -1.11,44.61 -1.36,44.72 -1.62,44.84 -1.90,44.86 -2.18,44.89 -2.46,44.83 -2.73,44.76 -2.97,44.61 -3.21,44.46 -3.39,44.25 -3.57,44.03 -3.67,43.77 -3.77,43.50 -3.78,43.22 -3.79,42.94 -3.71,42.67 -3.63,42.40 -3.47,42.17 -3.31,41.94 -3.08,41.77 -2.86,41.60 -2.59,41.52 -2.32,41.43 -2.04,41.43 -1.76,41.44 -1.49,41.53 -1.23,41.63 -1.00,41.80 -0.78,41.97 -0.63,42.21 -0.47,42.44 -0.40,42.72 -0.33,42.99 -0.35,43.27 -0.37,43.55 -0.48,43.81 -0.58,44.07 -0.77,44.28 -0.96,44.50 -1.20,44.64 -1.44,44.78 -1.72,44.84 -1.99,44.89 -2.27,44.86 -2.55,44.82 -2.81,44.70 -3.06,44.58 -3.26,44.38 -3.47,44.19 -3.59,43.94 -3.72,43.69 -3.76,43.41 -3.81,43.13 -3.81,43.13 -3.81,43.13 -3.66,40.81 -3.51,38.49 -3.41,36.67 -3.31,34.86 -3.22,32.36 -3.13,29.86 -2.90,27.15 -2.68,24.45 -2.50,22.11 -2.32,19.77 -2.18,16.46 -2.04,13.14 -2.03,9.69 -2.03,6.25 -1.96,3.08 -1.89,-0.08 -1.85,-0.31 -1.81,-0.53 -1.72,-0.74 -1.63,-0.95 -1.49,-1.14 -1.35,-1.32 -1.18,-1.46 -1.00,-1.60 -0.79,-1.70 -0.58,-1.80 -0.36,-1.84 -0.14,-1.89 0.08,-1.88 0.31,-1.86 0.53,-1.80 0.75,-1.73 0.95,-1.62 1.14,-1.50 1.31,-1.34 1.47,-1.19 1.59,-0.99 1.71,-0.80 1.78,-0.58 1.86,-0.36 1.87,-0.13 1.89,0.08 1.89,0.08 L 1.89,0.08 Z"></path></g><g transform="translate(38.46402170393412 98.47578588552915) rotate(0 -13.115050239921402 11.189501093200306)" stroke="none"><path fill="#1e1e1e" d="M 1.13,1.64 Q 1.13,1.64 -0.19,2.58 -1.52,3.51 -3.10,4.68 -4.69,5.85 -5.58,6.71 -6.47,7.57 -7.93,8.77 -9.39,9.97 -11.07,11.19 -12.75,12.40 -14.68,13.78 -16.62,15.15 -18.04,16.48 -19.46,17.81 -20.33,18.88 -21.20,19.95 -23.11,21.76 -25.01,23.56 -25.28,23.69 -25.56,23.82 -25.85,23.85 -26.15,23.88 -26.45,23.82 -26.74,23.75 -27.00,23.60 -27.25,23.44 -27.45,23.21 -27.64,22.99 -27.76,22.71 -27.87,22.43 -27.88,22.13 -27.90,21.83 -27.82,21.54 -27.74,21.25 -27.57,21.00 -27.40,20.75 -27.16,20.57 -26.93,20.39 -26.64,20.29 -26.36,20.20 -26.06,20.20 -25.76,20.20 -25.47,20.29 -25.19,20.39 -24.95,20.57 -24.71,20.75 -24.54,21.00 -24.37,21.25 -24.29,21.54 -24.21,21.83 -24.23,22.12 -24.24,22.42 -24.35,22.70 -24.46,22.98 -24.66,23.21 -24.85,23.44 -25.11,23.60 -25.37,23.75 -25.66,23.82 -25.95,23.88 -26.25,23.85 -26.55,23.82 -26.82,23.69 -27.09,23.56 -27.31,23.36 -27.53,23.15 -27.67,22.89 -27.81,22.62 -27.86,22.32 -27.91,22.03 -27.86,21.73 -27.81,21.44 -27.67,21.17 -27.53,20.91 -27.32,20.70 -27.10,20.49 -27.10,20.49 -27.10,20.49 -25.48,19.00 -23.86,17.51 -22.79,16.48 -21.73,15.44 -20.20,13.94 -18.67,12.44 -16.83,10.96 -14.99,9.48 -13.47,8.24 -11.94,7.00 -10.53,5.74 -9.12,4.48 -8.08,3.68 -7.04,2.89 -5.43,1.52 -3.82,0.15 -2.47,-0.74 -1.13,-1.64 -0.91,-1.76 -0.70,-1.87 -0.46,-1.92 -0.23,-1.98 0.00,-1.98 0.24,-1.98 0.48,-1.92 0.71,-1.86 0.92,-1.75 1.14,-1.64 1.32,-1.48 1.50,-1.32 1.63,-1.12 1.77,-0.92 1.85,-0.69 1.94,-0.47 1.97,-0.23 2.00,0.00 1.97,0.24 1.94,0.48 1.85,0.71 1.76,0.93 1.63,1.13 1.49,1.33 1.31,1.49 1.13,1.64 1.13,1.64 L 1.13,1.64 Z"></path></g><g transform="translate(41.326055638623075 97.25935040981403) rotate(0 9.05647580225559 15.273654781523874)" stroke="none"><path fill="#1e1e1e" d="M 1.79,-0.83 Q 1.79,-0.83 2.68,1.28 3.57,3.40 4.63,5.43 5.69,7.46 6.44,8.69 7.19,9.92 8.71,12.58 10.23,15.24 12.25,17.92 14.27,20.60 15.73,22.81 17.19,25.02 18.35,27.31 19.50,29.61 19.58,29.85 19.67,30.09 19.67,30.35 19.67,30.60 19.60,30.85 19.52,31.09 19.37,31.30 19.21,31.50 19.00,31.65 18.79,31.80 18.55,31.87 18.30,31.94 18.05,31.93 17.79,31.92 17.55,31.83 17.31,31.74 17.11,31.57 16.92,31.41 16.78,31.19 16.65,30.98 16.59,30.73 16.53,30.48 16.55,30.22 16.58,29.97 16.68,29.73 16.78,29.50 16.96,29.31 17.13,29.12 17.36,29.00 17.58,28.88 17.83,28.83 18.09,28.79 18.34,28.82 18.59,28.86 18.82,28.98 19.05,29.09 19.23,29.28 19.41,29.46 19.52,29.69 19.63,29.92 19.66,30.18 19.69,30.43 19.64,30.68 19.59,30.93 19.46,31.16 19.33,31.38 19.14,31.55 18.94,31.71 18.71,31.81 18.47,31.91 18.22,31.93 17.96,31.95 17.71,31.88 17.46,31.82 17.25,31.68 17.04,31.53 16.88,31.33 16.72,31.13 16.72,31.13 16.72,31.13 15.71,28.93 14.69,26.72 13.23,24.63 11.76,22.54 9.55,19.76 7.33,16.98 5.66,14.32 3.98,11.65 3.37,10.37 2.77,9.09 1.54,7.00 0.31,4.92 -0.73,2.88 -1.79,0.83 -1.86,0.60 -1.93,0.38 -1.95,0.14 -1.97,-0.09 -1.93,-0.32 -1.89,-0.56 -1.80,-0.78 -1.70,-0.99 -1.56,-1.18 -1.41,-1.37 -1.23,-1.52 -1.04,-1.67 -0.82,-1.77 -0.61,-1.87 -0.38,-1.92 -0.14,-1.97 0.09,-1.96 0.32,-1.94 0.55,-1.88 0.78,-1.81 0.99,-1.69 1.19,-1.57 1.36,-1.40 1.53,-1.24 1.66,-1.03 1.79,-0.83 1.79,-0.83 L 1.79,-0.83 Z"></path></g><g transform="translate(40.69510078906751 71.89326017440271) rotate(0 -15.347550394533755 -7.255980769860344)" stroke="none"><path fill="#1e1e1e" d="M -0.85,1.83 Q -0.85,1.83 -5.08,-0.23 -9.31,-2.30 -13.00,-4.00 -16.69,-5.70 -19.82,-7.22 -22.95,-8.75 -25.28,-9.99 -27.61,-11.22 -29.40,-12.03 -31.20,-12.84 -31.42,-12.99 -31.64,-13.14 -31.80,-13.35 -31.97,-13.56 -32.05,-13.81 -32.14,-14.06 -32.14,-14.33 -32.14,-14.59 -32.06,-14.84 -31.98,-15.10 -31.82,-15.31 -31.66,-15.52 -31.44,-15.67 -31.22,-15.82 -30.96,-15.90 -30.71,-15.97 -30.44,-15.96 -30.18,-15.94 -29.93,-15.85 -29.68,-15.75 -29.48,-15.58 -29.27,-15.41 -29.14,-15.18 -29.00,-14.95 -28.94,-14.70 -28.88,-14.44 -28.91,-14.17 -28.93,-13.91 -29.04,-13.67 -29.15,-13.42 -29.34,-13.23 -29.52,-13.04 -29.75,-12.91 -29.98,-12.78 -30.25,-12.74 -30.51,-12.69 -30.77,-12.74 -31.03,-12.78 -31.27,-12.90 -31.50,-13.02 -31.69,-13.21 -31.87,-13.41 -31.99,-13.65 -32.10,-13.89 -32.13,-14.15 -32.16,-14.41 -32.10,-14.67 -32.05,-14.93 -31.91,-15.16 -31.78,-15.39 -31.58,-15.56 -31.38,-15.74 -31.13,-15.84 -30.88,-15.94 -30.62,-15.95 -30.35,-15.97 -30.10,-15.90 -29.84,-15.83 -29.84,-15.83 -29.84,-15.83 -28.03,-14.88 -26.22,-13.92 -23.91,-12.78 -21.60,-11.63 -18.46,-10.22 -15.33,-8.80 -11.55,-7.21 -7.77,-5.63 -3.45,-3.73 0.85,-1.83 1.06,-1.70 1.26,-1.57 1.43,-1.40 1.60,-1.23 1.73,-1.01 1.85,-0.80 1.92,-0.57 1.99,-0.34 2.00,-0.09 2.02,0.14 1.97,0.38 1.92,0.62 1.82,0.84 1.72,1.06 1.56,1.25 1.41,1.44 1.22,1.59 1.02,1.74 0.80,1.84 0.57,1.94 0.33,1.98 0.09,2.02 -0.14,2.00 -0.38,1.98 -0.62,1.91 -0.85,1.83 -0.85,1.83 L -0.85,1.83 Z"></path></g><g transform="translate(41.59321670103964 70.9269329273402) rotate(0 18.211005398701673 -2.712821639182039)" stroke="none"><path fill="#1e1e1e" d="M -0.34,-1.79 Q -0.34,-1.79 1.89,-2.15 4.12,-2.51 6.23,-2.79 8.34,-3.08 10.54,-3.41 12.74,-3.73 14.63,-4.05 16.51,-4.37 18.80,-4.75 21.09,-5.14 23.28,-5.31 25.46,-5.48 27.67,-5.68 29.87,-5.88 31.54,-6.17 33.20,-6.46 34.86,-6.66 36.52,-6.85 36.77,-6.80 37.03,-6.74 37.25,-6.60 37.47,-6.46 37.64,-6.26 37.80,-6.06 37.90,-5.82 37.99,-5.58 38.00,-5.32 38.01,-5.06 37.94,-4.81 37.87,-4.56 37.72,-4.35 37.57,-4.13 37.36,-3.98 37.16,-3.82 36.91,-3.74 36.66,-3.66 36.40,-3.66 36.14,-3.67 35.89,-3.75 35.65,-3.84 35.44,-4.00 35.24,-4.16 35.10,-4.37 34.95,-4.59 34.88,-4.84 34.82,-5.09 34.83,-5.35 34.85,-5.61 34.95,-5.85 35.05,-6.09 35.22,-6.29 35.39,-6.49 35.61,-6.62 35.84,-6.75 36.09,-6.80 36.35,-6.86 36.61,-6.83 36.86,-6.79 37.10,-6.68 37.33,-6.57 37.52,-6.39 37.71,-6.21 37.83,-5.98 37.95,-5.75 37.98,-5.49 38.02,-5.23 37.98,-4.98 37.93,-4.72 37.81,-4.49 37.69,-4.26 37.50,-4.09 37.30,-3.91 37.07,-3.80 36.83,-3.70 36.57,-3.67 36.31,-3.65 36.31,-3.65 36.31,-3.65 34.96,-3.51 33.60,-3.38 31.88,-3.23 30.16,-3.07 27.93,-2.83 25.71,-2.58 23.67,-2.39 21.63,-2.19 19.31,-1.73 16.99,-1.27 15.12,-1.00 13.25,-0.73 11.04,-0.33 8.84,0.07 6.80,0.43 4.76,0.79 2.55,1.29 0.34,1.79 0.12,1.80 -0.09,1.82 -0.31,1.78 -0.52,1.74 -0.72,1.65 -0.92,1.56 -1.10,1.43 -1.27,1.30 -1.41,1.12 -1.55,0.95 -1.64,0.75 -1.73,0.55 -1.77,0.34 -1.81,0.12 -1.80,-0.09 -1.79,-0.31 -1.73,-0.52 -1.67,-0.73 -1.55,-0.92 -1.44,-1.11 -1.29,-1.26 -1.13,-1.42 -0.95,-1.54 -0.76,-1.65 -0.55,-1.72 -0.34,-1.79 -0.34,-1.79 L -0.34,-1.79 Z"></path></g><g transform="translate(80.41683492129232 65.45297328662218) rotate(0 15.553605469274771 -0.07531668249112045)" stroke="none"><path fill="#1e1e1e" d="M -2.13,0.66 Q -2.13,0.66 -2.42,-0.06 -2.72,-0.78 -2.91,-1.87 -3.11,-2.97 -2.98,-4.72 -2.85,-6.48 -1.24,-8.54 0.36,-10.60 2.10,-11.93 3.84,-13.25 5.80,-14.20 7.76,-15.15 9.39,-15.74 11.02,-16.33 12.88,-16.55 14.74,-16.77 15.74,-16.12 16.74,-15.47 17.52,-13.12 18.31,-10.76 16.86,-7.86 15.41,-4.96 14.96,-3.91 14.50,-2.86 14.24,-2.10 13.98,-1.33 13.81,-1.08 13.65,-0.82 13.43,-0.61 13.20,-0.40 12.94,-0.25 12.67,-0.10 12.38,-0.02 12.08,0.05 11.78,0.06 11.47,0.07 11.18,0.01 10.88,-0.05 10.60,-0.18 10.33,-0.31 10.09,-0.51 9.86,-0.70 9.68,-0.95 9.50,-1.20 9.38,-1.48 9.26,-1.76 9.22,-2.06 9.17,-2.36 9.20,-2.67 9.23,-2.97 9.32,-3.26 9.42,-3.55 10.33,-4.24 11.23,-4.94 11.98,-5.70 12.72,-6.45 15.39,-7.65 18.06,-8.85 20.94,-8.95 23.81,-9.06 26.00,-8.78 28.18,-8.49 30.16,-7.62 32.14,-6.74 33.57,-5.25 34.99,-3.77 35.78,-2.27 36.57,-0.77 37.07,0.92 37.56,2.62 37.12,3.79 36.68,4.97 35.18,5.94 33.67,6.92 31.93,7.24 30.20,7.57 28.35,7.62 26.50,7.67 25.06,7.91 23.63,8.15 24.01,6.56 24.39,4.97 25.40,6.10 26.40,7.23 26.62,8.49 26.83,9.74 26.25,11.24 25.67,12.73 22.81,14.20 19.95,15.68 17.14,16.10 14.34,16.51 11.59,16.45 8.85,16.40 7.51,16.41 6.17,16.42 4.41,15.82 2.65,15.21 1.15,13.89 -0.34,12.57 -1.61,11.68 -2.88,10.79 -3.91,10.24 -4.94,9.69 -5.92,8.17 -6.89,6.66 -6.53,5.59 -6.16,4.52 -5.27,3.92 -4.38,3.32 -3.36,1.06 -2.33,-1.18 -2.08,-1.53 -1.83,-1.87 -1.48,-2.11 -1.14,-2.36 -0.73,-2.48 -0.32,-2.60 0.09,-2.58 0.52,-2.56 0.91,-2.41 1.31,-2.26 1.64,-1.99 1.96,-1.73 2.19,-1.37 2.41,-1.01 2.51,-0.59 2.61,-0.18 2.57,0.23 2.53,0.65 2.36,1.04 2.19,1.43 1.90,1.74 1.62,2.06 1.24,2.26 0.87,2.47 0.46,2.54 0.04,2.62 -0.37,2.55 -0.79,2.49 -1.17,2.30 -1.55,2.11 -1.84,1.81 -2.14,1.50 -2.32,1.12 -2.51,0.74 -2.56,0.32 -2.61,-0.09 -2.53,-0.51 -2.45,-0.92 -2.23,-1.29 -2.02,-1.66 -1.70,-1.94 -1.38,-2.22 -0.99,-2.38 -0.60,-2.55 -0.18,-2.58 0.24,-2.61 0.65,-2.50 1.06,-2.39 1.41,-2.16 1.77,-1.93 2.03,-1.59 2.29,-1.26 2.43,-0.86 2.57,-0.46 2.58,-0.04 2.59,0.38 2.46,0.78 2.33,1.18 2.33,1.18 2.33,1.18 1.40,3.62 0.47,6.06 -0.66,7.01 -1.80,7.95 -1.97,6.56 -2.15,5.17 -1.13,5.93 -0.10,6.68 1.21,7.55 2.53,8.41 4.43,10.29 6.33,12.16 7.55,12.27 8.78,12.37 11.14,12.22 13.50,12.07 15.60,11.55 17.70,11.03 19.33,10.10 20.97,9.18 20.49,8.15 20.01,7.12 21.43,5.06 22.84,2.99 24.54,2.93 26.23,2.87 27.83,2.73 29.42,2.60 31.10,1.78 32.78,0.97 32.37,-0.10 31.97,-1.17 31.18,-2.21 30.39,-3.24 29.06,-3.88 27.72,-4.51 25.91,-4.62 24.10,-4.73 21.98,-4.49 19.87,-4.25 17.97,-3.22 16.07,-2.19 15.02,-1.76 13.98,-1.33 13.81,-1.08 13.65,-0.82 13.43,-0.61 13.20,-0.40 12.94,-0.25 12.67,-0.10 12.38,-0.02 12.08,0.05 11.78,0.06 11.47,0.07 11.18,0.01 10.88,-0.05 10.60,-0.18 10.33,-0.31 10.09,-0.51 9.86,-0.70 9.68,-0.95 9.50,-1.19 9.38,-1.48 9.26,-1.76 9.22,-2.06 9.17,-2.36 9.20,-2.67 9.23,-2.97 9.32,-3.26 9.42,-3.55 9.82,-4.24 10.22,-4.92 10.77,-5.97 11.33,-7.02 11.84,-9.72 12.36,-12.41 10.99,-11.98 9.62,-11.54 8.06,-10.67 6.50,-9.80 5.28,-8.82 4.06,-7.85 2.93,-6.11 1.80,-4.36 1.80,-3.27 1.79,-2.17 1.96,-1.42 2.13,-0.66 2.18,-0.40 2.23,-0.13 2.21,0.13 2.19,0.40 2.11,0.65 2.03,0.91 1.89,1.14 1.76,1.37 1.56,1.56 1.37,1.75 1.14,1.89 0.91,2.03 0.66,2.11 0.40,2.19 0.13,2.21 -0.13,2.23 -0.39,2.18 -0.66,2.13 -0.91,2.02 -1.15,1.91 -1.36,1.74 -1.58,1.58 -1.74,1.36 -1.91,1.15 -2.02,0.91 -2.13,0.66 -2.13,0.66 L -2.13,0.66 Z"></path></g><g transform="translate(41.50226825426216 27.354100501672292) rotate(0 0 0.08526416885842991)" stroke="none"><path fill="#1e1e1e" d="M 2.12,-0.66 Q 2.12,-0.66 2.15,-0.13 2.18,0.40 1.96,0.88 1.74,1.36 1.32,1.69 0.91,2.02 0.38,2.12 -0.13,2.21 -0.64,2.05 -1.14,1.90 -1.52,1.52 -1.90,1.14 -2.05,0.64 -2.21,0.13 -2.12,-0.38 -2.02,-0.91 -1.69,-1.32 -1.36,-1.74 -0.88,-1.96 -0.39,-2.18 0.13,-2.15 0.66,-2.11 1.11,-1.84 1.57,-1.56 1.84,-1.11 L 2.12,-0.66 Z"></path></g><g transform="translate(59.44184938209219 27.976528934339512) rotate(0 0.00004999999873689376 0.00005000000010113581)" stroke="none"><path fill="#1e1e1e" d="M 1.57,-1.57 Q 1.57,-1.57 1.77,-1.27 1.98,-0.98 2.09,-0.64 2.20,-0.29 2.19,0.05 2.18,0.41 2.05,0.75 1.93,1.09 1.70,1.37 1.48,1.65 1.18,1.84 0.87,2.04 0.52,2.12 0.18,2.21 -0.17,2.18 -0.53,2.15 -0.86,2.01 -1.19,1.87 -1.46,1.63 -1.73,1.39 -1.90,1.07 -2.08,0.76 -2.15,0.41 -2.21,0.05 -2.17,-0.29 -2.12,-0.65 -1.96,-0.97 -1.80,-1.29 -1.54,-1.54 -1.29,-1.80 -0.97,-1.96 -0.65,-2.12 -0.29,-2.17 0.06,-2.21 0.41,-2.15 0.76,-2.08 1.07,-1.90 1.39,-1.73 1.63,-1.46 1.87,-1.19 2.01,-0.86 2.15,-0.53 2.18,-0.17 2.21,0.18 2.12,0.52 2.03,0.87 1.84,1.18 1.65,1.48 1.37,1.70 1.09,1.93 0.75,2.05 0.41,2.18 0.05,2.19 -0.30,2.20 -0.64,2.09 -0.98,1.98 -1.27,1.77 -1.57,1.56 -1.57,1.57 -1.57,1.57 -1.73,1.35 -1.90,1.14 -2.01,0.90 -2.12,0.66 -2.16,0.39 -2.21,0.13 -2.20,-0.13 -2.18,-0.40 -2.10,-0.65 -2.02,-0.91 -1.88,-1.14 -1.74,-1.36 -1.55,-1.55 -1.36,-1.74 -1.14,-1.88 -0.91,-2.02 -0.65,-2.10 -0.40,-2.18 -0.13,-2.20 0.13,-2.21 0.39,-2.16 0.66,-2.12 0.90,-2.01 1.14,-1.90 1.35,-1.73 1.57,-1.57 1.57,-1.57 L 1.57,-1.57 Z"></path></g><g transform="translate(42.41175272208784 40.35972839155875) rotate(0 8.121412083772157 3.6294114544111835)" stroke="none"><path fill="#1e1e1e" d="M 2.08,-1.43 Q 2.08,-1.43 2.97,-0.06 3.87,1.29 4.76,2.22 5.66,3.15 6.74,3.92 7.82,4.69 9.27,3.79 10.72,2.89 12.93,1.56 15.13,0.23 15.56,0.12 16.00,0.01 16.44,0.04 16.88,0.07 17.29,0.25 17.70,0.42 18.03,0.71 18.36,1.01 18.59,1.39 18.81,1.78 18.89,2.21 18.98,2.65 18.92,3.09 18.87,3.53 18.67,3.93 18.48,4.33 18.17,4.65 17.86,4.96 17.46,5.16 17.06,5.36 16.62,5.42 16.18,5.49 15.75,5.41 15.31,5.33 14.92,5.11 14.53,4.90 14.23,4.57 13.94,4.24 13.76,3.83 13.58,3.42 13.54,2.98 13.50,2.54 13.60,2.11 13.71,1.68 13.94,1.30 14.18,0.92 14.53,0.64 14.87,0.36 15.29,0.21 15.70,0.05 16.15,0.04 16.59,0.02 17.01,0.15 17.44,0.28 17.80,0.53 18.17,0.79 18.43,1.15 18.69,1.51 18.82,1.93 18.96,2.35 18.95,2.80 18.94,3.24 18.79,3.66 18.64,4.08 18.36,4.43 18.09,4.77 17.71,5.02 17.34,5.26 17.34,5.26 17.34,5.26 15.40,6.40 13.46,7.53 11.78,8.47 10.11,9.41 8.73,9.56 7.35,9.70 5.65,8.90 3.95,8.11 3.03,7.31 2.12,6.52 0.98,5.30 -0.16,4.08 -1.12,2.76 -2.08,1.43 -2.22,1.16 -2.36,0.89 -2.43,0.59 -2.51,0.30 -2.51,-0.00 -2.51,-0.30 -2.43,-0.60 -2.36,-0.89 -2.22,-1.16 -2.07,-1.43 -1.87,-1.66 -1.67,-1.89 -1.42,-2.06 -1.17,-2.24 -0.88,-2.34 -0.60,-2.45 -0.29,-2.49 0.00,-2.52 0.30,-2.49 0.60,-2.45 0.89,-2.34 1.17,-2.23 1.42,-2.06 1.67,-1.89 1.88,-1.66 2.08,-1.43 2.08,-1.43 L 2.08,-1.43 Z"></path></g></svg>